<?xml version="1.0" encoding="iso-8859-1"?>
<!-- Generator: Adobe Illustrator 19.0.0, SVG Export Plug-In . SVG Version: 6.00 Build 0)  -->
<svg version="1.1" id="Layer_1" xmlns="http://www.w3.org/2000/svg" xmlns:xlink="http://www.w3.org/1999/xlink" x="0px" y="0px"
	 viewBox="0 0 356.923 356.923" style="enable-background:new 0 0 356.923 356.923;" xml:space="preserve">
<circle style="fill:#FF6D3B;" cx="178.462" cy="178.462" r="178.462"/>
<rect x="71.705" y="249.526" style="fill:#FFB733;" width="45.068" height="7.434"/>
<rect x="71.705" y="248.985" style="fill:#FFD55C;" width="45.068" height="6.658"/>
<rect x="71.705" y="241.551" style="fill:#FFB733;" width="45.068" height="7.434"/>
<rect x="71.705" y="241.009" style="fill:#FFD55C;" width="45.068" height="6.663"/>
<rect x="240.172" y="249.526" style="fill:#FFB733;" width="45.066" height="7.434"/>
<rect x="240.172" y="248.985" style="fill:#FFD55C;" width="45.066" height="6.658"/>
<rect x="240.172" y="241.551" style="fill:#FFB733;" width="45.066" height="7.434"/>
<rect x="240.172" y="241.009" style="fill:#FFD55C;" width="45.066" height="6.663"/>
<rect x="240.172" y="233.575" style="fill:#FFB733;" width="45.066" height="7.434"/>
<rect x="240.172" y="233.034" style="fill:#FFD55C;" width="45.066" height="6.661"/>
<rect x="240.172" y="225.6" style="fill:#FFB733;" width="45.066" height="7.434"/>
<rect x="240.172" y="225.058" style="fill:#FFD55C;" width="45.066" height="6.663"/>
<rect x="240.172" y="217.625" style="fill:#FFB733;" width="45.066" height="7.434"/>
<rect x="240.172" y="217.108" style="fill:#FFD55C;" width="45.066" height="6.661"/>
<rect x="240.172" y="209.649" style="fill:#FFB733;" width="45.066" height="7.434"/>
<rect x="240.172" y="209.132" style="fill:#FFD55C;" width="45.066" height="6.663"/>
<rect x="240.172" y="201.698" style="fill:#FFB733;" width="45.066" height="7.434"/>
<rect x="240.172" y="201.157" style="fill:#FFD55C;" width="45.066" height="6.661"/>
<rect x="240.172" y="193.723" style="fill:#FFB733;" width="45.066" height="7.434"/>
<rect x="240.172" y="193.182" style="fill:#FFD55C;" width="45.066" height="6.663"/>
<rect x="240.172" y="185.748" style="fill:#FFB733;" width="45.066" height="7.434"/>
<rect x="240.172" y="185.206" style="fill:#FFD55C;" width="45.066" height="6.661"/>
<rect x="240.172" y="177.772" style="fill:#FFB733;" width="45.066" height="7.434"/>
<rect x="240.172" y="177.231" style="fill:#FFD55C;" width="45.066" height="6.661"/>
<rect x="240.172" y="169.797" style="fill:#FFB733;" width="45.066" height="7.434"/>
<rect x="240.172" y="169.28" style="fill:#FFD55C;" width="45.066" height="6.658"/>
<rect x="240.172" y="161.822" style="fill:#FFB733;" width="45.066" height="7.434"/>
<rect x="240.172" y="161.305" style="fill:#FFD55C;" width="45.066" height="6.666"/>
<rect x="240.172" y="153.846" style="fill:#FFB733;" width="45.066" height="7.434"/>
<rect x="240.172" y="153.329" style="fill:#FFD55C;" width="45.066" height="6.658"/>
<rect x="240.172" y="145.895" style="fill:#FFB733;" width="45.066" height="7.434"/>
<rect x="240.172" y="145.354" style="fill:#FFD55C;" width="45.066" height="6.663"/>
<rect x="127.852" y="249.526" style="fill:#FFB733;" width="45.071" height="7.434"/>
<rect x="127.852" y="248.985" style="fill:#FFD55C;" width="45.071" height="6.658"/>
<rect x="127.852" y="241.551" style="fill:#FFB733;" width="45.071" height="7.434"/>
<rect x="127.852" y="241.009" style="fill:#FFD55C;" width="45.071" height="6.663"/>
<rect x="127.852" y="233.575" style="fill:#FFB733;" width="45.071" height="7.434"/>
<rect x="127.852" y="233.034" style="fill:#FFD55C;" width="45.071" height="6.666"/>
<rect x="127.852" y="225.6" style="fill:#FFB733;" width="45.071" height="7.434"/>
<rect x="127.852" y="225.083" style="fill:#FFD55C;" width="45.071" height="6.663"/>
<rect x="127.852" y="217.625" style="fill:#FFB733;" width="45.071" height="7.434"/>
<rect x="127.852" y="217.108" style="fill:#FFD55C;" width="45.071" height="6.663"/>
<rect x="127.852" y="209.674" style="fill:#FFB733;" width="45.071" height="7.434"/>
<rect x="127.852" y="209.132" style="fill:#FFD55C;" width="45.071" height="6.663"/>
<rect x="184.025" y="249.526" style="fill:#FFB733;" width="45.066" height="7.434"/>
<rect x="184.025" y="248.985" style="fill:#FFD55C;" width="45.066" height="6.658"/>
<rect x="184.025" y="241.551" style="fill:#FFB733;" width="45.066" height="7.434"/>
<rect x="184.025" y="241.009" style="fill:#FFD55C;" width="45.066" height="6.663"/>
<rect x="184.025" y="233.575" style="fill:#FFB733;" width="45.066" height="7.434"/>
<rect x="184.025" y="233.034" style="fill:#FFD55C;" width="45.066" height="6.666"/>
<rect x="184.025" y="225.6" style="fill:#FFB733;" width="45.066" height="7.434"/>
<rect x="184.025" y="225.083" style="fill:#FFD55C;" width="45.066" height="6.663"/>
<rect x="184.025" y="217.625" style="fill:#FFB733;" width="45.066" height="7.434"/>
<rect x="184.025" y="217.108" style="fill:#FFD55C;" width="45.066" height="6.663"/>
<rect x="184.025" y="209.674" style="fill:#FFB733;" width="45.066" height="7.434"/>
<rect x="184.025" y="209.132" style="fill:#FFD55C;" width="45.066" height="6.663"/>
<rect x="184.025" y="201.698" style="fill:#FFB733;" width="45.066" height="7.434"/>
<rect x="184.025" y="201.157" style="fill:#FFD55C;" width="45.066" height="6.663"/>
<rect x="184.025" y="193.723" style="fill:#FFB733;" width="45.066" height="7.434"/>
<rect x="184.025" y="193.182" style="fill:#FFD55C;" width="45.066" height="6.661"/>
<rect x="184.025" y="185.748" style="fill:#FFB733;" width="45.066" height="7.434"/>
<rect x="184.025" y="185.231" style="fill:#FFD55C;" width="45.066" height="6.658"/>
<rect x="184.025" y="177.772" style="fill:#FFB733;" width="45.066" height="7.434"/>
<rect x="184.025" y="177.255" style="fill:#FFD55C;" width="45.066" height="6.661"/>
<g>
	<path style="fill:#FFFFFF;" d="M71.692,215.749c-2.518,0-4.682-1.797-5.145-4.278c-0.524-2.841,1.359-5.578,4.192-6.105
		c44.455-8.256,92.615-29.952,135.616-61.1c27.404-19.847,51.37-42.326,71.23-66.821c1.002-1.233,2.486-1.937,4.071-1.937
		c1.194,0,2.366,0.416,3.296,1.172c1.083,0.879,1.762,2.129,1.905,3.522c0.148,1.391-0.258,2.757-1.14,3.842
		c-20.441,25.204-45.076,48.32-73.221,68.704c-44.234,32.042-93.898,54.385-139.845,62.919
		C72.332,215.722,72.01,215.749,71.692,215.749z"/>
	<path style="fill:#FFFFFF;" d="M285.221,120.187c-2.686,0-4.921-2.018-5.201-4.692l-3.03-28.999l-28.997,3.025
		c-0.182,0.022-0.367,0.03-0.549,0.03c-2.688,0-4.923-2.016-5.204-4.689c-0.148-1.393,0.258-2.757,1.14-3.845
		c0.881-1.086,2.134-1.765,3.527-1.908l39.412-4.118l4.118,39.417c0.298,2.873-1.794,5.452-4.665,5.753
		C285.588,120.177,285.398,120.187,285.221,120.187z"/>
</g>
<g>
</g>
<g>
</g>
<g>
</g>
<g>
</g>
<g>
</g>
<g>
</g>
<g>
</g>
<g>
</g>
<g>
</g>
<g>
</g>
<g>
</g>
<g>
</g>
<g>
</g>
<g>
</g>
<g>
</g>
</svg>
